<svg width="188" height="30" viewBox="0 0 188 30" fill="none" xmlns="http://www.w3.org/2000/svg">
<g clip-path="url(#clip0)">
<path d="M115.087 28.2814C115.087 21.7129 115.087 12.7591 115.087 1.26124C115.321 1.26124 115.539 1.26124 115.757 1.26124C119.437 1.26124 123.78 1.27089 127.46 1.25C127.46 1.25 129.651 9.82767 130.787 14.158C130.96 14.8175 132 14.7929 132.193 14.2257C133.314 9.91484 135.49 1.52927 135.556 1.29042C139.659 1.29042 143.745 1.29042 147.882 1.29042C147.882 12.7356 147.882 21.725 147.882 28.2961C144.77 28.2961 141.693 28.2961 138.544 28.2961C138.544 24.7837 138.544 25.8909 138.544 22.4302C138.55 21.6967 137.392 21.4597 137.075 22.3061L134.891 28.31C132.608 28.3424 130.192 28.3236 127.878 28.3236L125.985 22.419C125.694 21.471 124.442 21.691 124.442 22.419C124.442 25.9139 124.458 28.2814 124.458 28.2814C121.303 28.2814 118.23 28.2814 115.087 28.2814Z" fill="white"/>
<path d="M51.6498 27.1183C50.0309 24.1389 48.5767 21.4385 46.9989 18.5295C46.9962 18.5295 46.9962 18.5268 46.9962 18.5268C47.0017 18.5241 47.0044 18.5214 47.0099 18.516C47.0099 18.516 47.0127 18.5133 47.0154 18.5133C48.8236 16.685 49.9376 14.185 49.9376 11.4278C49.9376 6.02966 45.6682 1.61747 40.2847 1.29785C40.2765 1.29785 40.2655 1.29516 40.2573 1.29785C40.1173 1.28973 39.9774 1.28702 39.8375 1.2816C39.7771 1.27891 39.7167 1.27891 39.6564 1.27891C39.4149 1.27077 39.1762 1.26806 38.9347 1.26806C33.9272 1.24639 32.761 1.25994 27.7535 1.25994H27.0264V28.2829H36.8302V21.5441C38.825 21.5441 37.3131 21.5306 39.0802 21.5603C39.0966 21.5631 39.1131 21.5631 39.1268 21.5631H39.1762V21.5658L42.6005 28.31C45.2977 28.2856 48.22 28.3236 50.9172 28.3236C51.7623 28.3236 51.9351 27.66 51.6498 27.1183ZM36.8659 11.4711C36.8659 9.9516 38.1171 8.71922 39.6564 8.71922C41.1957 8.71922 42.4469 9.9516 42.4469 11.4711C42.4469 12.9933 41.1957 14.2257 39.6564 14.2257C38.1171 14.2257 36.8659 12.9933 36.8659 11.4711Z" fill="white"/>
<path d="M103.453 1.29916C106.78 1.29916 113.336 1.30091 113.336 1.30091C113.321 6.58079 113.369 12.4839 113.259 17.7619C113.199 20.6298 112.409 23.3234 110.358 25.5094C108.536 27.4521 106.174 28.3825 103.619 28.8205C102.188 29.0656 100.755 29.2115 99.3236 29.2434C99.1636 29.2469 66.3517 29.2491 66.1917 29.2498C64.2407 29.2582 62.2926 29.0515 60.3563 28.5918C55.1231 27.3496 52.2291 24.0257 51.8625 18.7407C51.5835 14.7203 51.7177 10.6716 51.6801 6.63541C51.6637 4.87751 51.6774 3.11934 51.6774 1.31142C54.9743 1.31142 61.5936 1.30937 61.5936 1.30937C61.5958 5.79978 61.5893 11.0733 61.6013 15.5637C61.6032 16.261 61.6191 16.9703 61.7449 17.6532C62.1685 19.9532 63.655 21.0769 66.1816 21.0755C66.374 21.0754 99.2129 21.0686 99.3944 21.0551C101.917 20.8676 103.367 19.3903 103.406 16.7464C103.479 11.8735 103.453 1.59759 103.453 1.29916Z" fill="white"/>
<path d="M175.537 20.2132C175.537 22.9612 175.537 25.5964 175.537 28.2779C166.884 28.2779 158.257 28.2779 149.572 28.2779C149.559 28.0896 149.533 27.8948 149.533 27.7001C149.53 25.4888 149.54 23.2775 149.523 21.0663C149.52 20.6671 149.644 20.4187 149.969 20.1671C154.085 16.9818 157.246 14.4939 161.358 11.3027C162.147 10.8174 161.884 9.39546 160.684 9.39546C156.427 9.39546 154.221 9.39719 149.883 9.39719C149.883 6.66287 149.883 3.99496 149.883 1.29411C158.494 1.29411 167.057 1.29411 175.692 1.29411C175.704 1.54383 175.723 1.78208 175.724 2.02035C175.726 4.14136 175.708 6.26261 175.738 8.38322C175.745 8.90777 175.584 9.24264 175.161 9.56357C170.999 12.7269 167.791 15.1983 163.633 18.3675C162.959 18.9317 163.279 20.1844 164.345 20.207C168.723 20.207 171.084 20.2132 175.537 20.2132Z" fill="white"/>
<path d="M37.4805 21.5631C37.4969 21.5631 37.5134 21.5658 37.5299 21.5658V21.5631H37.4805ZM45.3499 18.5268C45.3499 18.5268 45.3499 18.5295 45.3526 18.5295C45.3554 18.5241 45.3608 18.5214 45.3636 18.516C45.3581 18.5214 45.3554 18.5241 45.3499 18.5268Z" fill="white"/>
<path d="M182.244 1.29785C179.571 1.29785 177.404 3.4376 177.404 6.0757V28.0852C177.404 28.1908 177.492 28.2775 177.598 28.2775H186.966C187.073 28.2775 187.158 28.1908 187.158 28.0852V6.14883C187.158 3.4701 184.958 1.29785 182.244 1.29785ZM182.337 8.87632C180.823 8.87632 179.593 7.66289 179.593 6.1678C179.593 4.67268 180.823 3.45927 182.337 3.45927C183.852 3.45927 185.081 4.67268 185.081 6.1678C185.081 7.66289 183.852 8.87632 182.337 8.87632Z" fill="white"/>
<path d="M25.0546 1.25C25.0546 3.93629 25.0546 6.57263 25.0546 9.28235C20.0022 9.28235 16.3358 9.28235 11.2391 9.28235C9.06811 9.28234 9.06811 12.0918 11.2391 12.0918C16.0698 12.0918 19.5335 12.0918 24.4283 12.0918C24.4283 14.428 24.4283 16.6909 24.4283 19.0483C19.5919 19.0483 14.7413 19.0483 9.81807 19.0483C9.81807 22.1532 9.81807 25.1654 9.81807 28.2189C6.51148 28.2189 3.27815 28.2189 0 28.2189C0 19.2428 0 10.2723 0 1.25C8.32375 1.25 16.6528 1.25 25.0546 1.25Z" fill="#507EFF"/>
<path d="M25.0546 1.25C25.0546 3.93629 25.0546 6.57263 25.0546 9.28235C20.0022 9.28235 16.3358 9.28235 11.2391 9.28235C9.06811 9.28234 9.06811 12.0918 11.2391 12.0918C16.0698 12.0918 19.5335 12.0918 24.4283 12.0918C24.4283 14.428 24.4283 16.6909 24.4283 19.0483C19.5919 19.0483 14.7413 19.0483 9.81807 19.0483C9.81807 22.1532 9.81807 25.1654 9.81807 28.2189C6.51148 28.2189 3.27815 28.2189 0 28.2189C0 19.2428 0 10.2723 0 1.25C8.32375 1.25 16.6528 1.25 25.0546 1.25Z" fill="#507EFF"/>
</g>
<defs>
<clipPath id="clip0">
<rect width="188" height="29" fill="white" transform="translate(0 0.25)"/>
</clipPath>
</defs>
</svg>
